<svg xmlns="http://www.w3.org/2000/svg" xmlns:xlink="http://www.w3.org/1999/xlink" width="500" zoomAndPan="magnify" viewBox="0 0 375 374.999991" height="500" preserveAspectRatio="xMidYMid meet" version="1.0"><defs><g/><clipPath id="b6964e9a6d"><path d="M 85 31 L 292 31 L 292 361.660156 L 85 361.660156 Z M 85 31 " clip-rule="nonzero"/></clipPath><clipPath id="36476c54d2"><path d="M 41.785156 102.730469 C 49.253906 90.550781 58.320312 79.9375 67.738281 69.195312 C 79.523438 55.753906 90.679688 34.378906 104.742188 22.457031 C 120.988281 8.683594 174.699219 49.214844 191.875 51.316406 C 223.429688 55.183594 250.792969 37.390625 276.628906 63.417969 C 301.265625 88.238281 313.949219 121.613281 320.953125 155.328125 C 322.886719 164.625 322.429688 175.855469 325.863281 184.59375 C 329.59375 194.078125 338.753906 199.6875 344.671875 207.640625 C 365.285156 235.339844 364.53125 246.234375 370.878906 283.816406 C 375.015625 308.296875 350.675781 330.402344 332.09375 337.664062 C 259.738281 365.929688 249.441406 366.402344 189.039062 352.679688 C 173.726562 349.203125 155.632812 351.828125 140.179688 352.203125 C 116.871094 352.773438 30.882812 364.699219 24.066406 346.5 C 3.914062 292.703125 0.0507812 207.859375 1.339844 172.851562 C 1.835938 159.359375 32.050781 117.535156 41.785156 102.730469 Z M 41.785156 102.730469 " clip-rule="evenodd"/></clipPath><clipPath id="8e42a01da0"><path d="M 231 221 L 371.671875 221 L 371.671875 352 L 231 352 Z M 231 221 " clip-rule="nonzero"/></clipPath><clipPath id="b9d8ace031"><path d="M 41.785156 102.730469 C 49.253906 90.550781 58.320312 79.9375 67.738281 69.195312 C 79.523438 55.753906 90.679688 34.378906 104.742188 22.457031 C 120.988281 8.683594 174.699219 49.214844 191.875 51.316406 C 223.429688 55.183594 250.792969 37.390625 276.628906 63.417969 C 301.265625 88.238281 313.949219 121.613281 320.953125 155.328125 C 322.886719 164.625 322.429688 175.855469 325.863281 184.59375 C 329.59375 194.078125 338.753906 199.6875 344.671875 207.640625 C 365.285156 235.339844 364.53125 246.234375 370.878906 283.816406 C 375.015625 308.296875 350.675781 330.402344 332.09375 337.664062 C 259.738281 365.929688 249.441406 366.402344 189.039062 352.679688 C 173.726562 349.203125 155.632812 351.828125 140.179688 352.203125 C 116.871094 352.773438 30.882812 364.699219 24.066406 346.5 C 3.914062 292.703125 0.0507812 207.859375 1.339844 172.851562 C 1.835938 159.359375 32.050781 117.535156 41.785156 102.730469 Z M 41.785156 102.730469 " clip-rule="evenodd"/></clipPath><clipPath id="55e6247702"><path d="M 233 213 L 366 213 L 366 280 L 233 280 Z M 233 213 " clip-rule="nonzero"/></clipPath><clipPath id="326ca8ee4a"><path d="M 41.785156 102.730469 C 49.253906 90.550781 58.320312 79.9375 67.738281 69.195312 C 79.523438 55.753906 90.679688 34.378906 104.742188 22.457031 C 120.988281 8.683594 174.699219 49.214844 191.875 51.316406 C 223.429688 55.183594 250.792969 37.390625 276.628906 63.417969 C 301.265625 88.238281 313.949219 121.613281 320.953125 155.328125 C 322.886719 164.625 322.429688 175.855469 325.863281 184.59375 C 329.59375 194.078125 338.753906 199.6875 344.671875 207.640625 C 365.285156 235.339844 364.53125 246.234375 370.878906 283.816406 C 375.015625 308.296875 350.675781 330.402344 332.09375 337.664062 C 259.738281 365.929688 249.441406 366.402344 189.039062 352.679688 C 173.726562 349.203125 155.632812 351.828125 140.179688 352.203125 C 116.871094 352.773438 30.882812 364.699219 24.066406 346.5 C 3.914062 292.703125 0.0507812 207.859375 1.339844 172.851562 C 1.835938 159.359375 32.050781 117.535156 41.785156 102.730469 Z M 41.785156 102.730469 " clip-rule="evenodd"/></clipPath><clipPath id="d791d0a4c7"><path d="M 206 69 L 346 69 L 346 278 L 206 278 Z M 206 69 " clip-rule="nonzero"/></clipPath><clipPath id="ce5da29729"><path d="M 41.785156 102.730469 C 49.253906 90.550781 58.320312 79.9375 67.738281 69.195312 C 79.523438 55.753906 90.679688 34.378906 104.742188 22.457031 C 120.988281 8.683594 174.699219 49.214844 191.875 51.316406 C 223.429688 55.183594 250.792969 37.390625 276.628906 63.417969 C 301.265625 88.238281 313.949219 121.613281 320.953125 155.328125 C 322.886719 164.625 322.429688 175.855469 325.863281 184.59375 C 329.59375 194.078125 338.753906 199.6875 344.671875 207.640625 C 365.285156 235.339844 364.53125 246.234375 370.878906 283.816406 C 375.015625 308.296875 350.675781 330.402344 332.09375 337.664062 C 259.738281 365.929688 249.441406 366.402344 189.039062 352.679688 C 173.726562 349.203125 155.632812 351.828125 140.179688 352.203125 C 116.871094 352.773438 30.882812 364.699219 24.066406 346.5 C 3.914062 292.703125 0.0507812 207.859375 1.339844 172.851562 C 1.835938 159.359375 32.050781 117.535156 41.785156 102.730469 Z M 41.785156 102.730469 " clip-rule="evenodd"/></clipPath><clipPath id="b46278e48b"><path d="M 1 71 L 203 71 L 203 361.660156 L 1 361.660156 Z M 1 71 " clip-rule="nonzero"/></clipPath><clipPath id="e9bd94ef89"><path d="M 41.785156 102.730469 C 49.253906 90.550781 58.320312 79.9375 67.738281 69.195312 C 79.523438 55.753906 90.679688 34.378906 104.742188 22.457031 C 120.988281 8.683594 174.699219 49.214844 191.875 51.316406 C 223.429688 55.183594 250.792969 37.390625 276.628906 63.417969 C 301.265625 88.238281 313.949219 121.613281 320.953125 155.328125 C 322.886719 164.625 322.429688 175.855469 325.863281 184.59375 C 329.59375 194.078125 338.753906 199.6875 344.671875 207.640625 C 365.285156 235.339844 364.53125 246.234375 370.878906 283.816406 C 375.015625 308.296875 350.675781 330.402344 332.09375 337.664062 C 259.738281 365.929688 249.441406 366.402344 189.039062 352.679688 C 173.726562 349.203125 155.632812 351.828125 140.179688 352.203125 C 116.871094 352.773438 30.882812 364.699219 24.066406 346.5 C 3.914062 292.703125 0.0507812 207.859375 1.339844 172.851562 C 1.835938 159.359375 32.050781 117.535156 41.785156 102.730469 Z M 41.785156 102.730469 " clip-rule="evenodd"/></clipPath><clipPath id="fc83a3aeff"><path d="M 1 172 L 169 172 L 169 361.660156 L 1 361.660156 Z M 1 172 " clip-rule="nonzero"/></clipPath><clipPath id="f2fc276d3a"><path d="M 41.785156 102.730469 C 49.253906 90.550781 58.320312 79.9375 67.738281 69.195312 C 79.523438 55.753906 90.679688 34.378906 104.742188 22.457031 C 120.988281 8.683594 174.699219 49.214844 191.875 51.316406 C 223.429688 55.183594 250.792969 37.390625 276.628906 63.417969 C 301.265625 88.238281 313.949219 121.613281 320.953125 155.328125 C 322.886719 164.625 322.429688 175.855469 325.863281 184.59375 C 329.59375 194.078125 338.753906 199.6875 344.671875 207.640625 C 365.285156 235.339844 364.53125 246.234375 370.878906 283.816406 C 375.015625 308.296875 350.675781 330.402344 332.09375 337.664062 C 259.738281 365.929688 249.441406 366.402344 189.039062 352.679688 C 173.726562 349.203125 155.632812 351.828125 140.179688 352.203125 C 116.871094 352.773438 30.882812 364.699219 24.066406 346.5 C 3.914062 292.703125 0.0507812 207.859375 1.339844 172.851562 C 1.835938 159.359375 32.050781 117.535156 41.785156 102.730469 Z M 41.785156 102.730469 " clip-rule="evenodd"/></clipPath><clipPath id="fa93b5753d"><path d="M 183 123 L 317 123 L 317 337 L 183 337 Z M 183 123 " clip-rule="nonzero"/></clipPath><clipPath id="620fc100e5"><path d="M 41.785156 102.730469 C 49.253906 90.550781 58.320312 79.9375 67.738281 69.195312 C 79.523438 55.753906 90.679688 34.378906 104.742188 22.457031 C 120.988281 8.683594 174.699219 49.214844 191.875 51.316406 C 223.429688 55.183594 250.792969 37.390625 276.628906 63.417969 C 301.265625 88.238281 313.949219 121.613281 320.953125 155.328125 C 322.886719 164.625 322.429688 175.855469 325.863281 184.59375 C 329.59375 194.078125 338.753906 199.6875 344.671875 207.640625 C 365.285156 235.339844 364.53125 246.234375 370.878906 283.816406 C 375.015625 308.296875 350.675781 330.402344 332.09375 337.664062 C 259.738281 365.929688 249.441406 366.402344 189.039062 352.679688 C 173.726562 349.203125 155.632812 351.828125 140.179688 352.203125 C 116.871094 352.773438 30.882812 364.699219 24.066406 346.5 C 3.914062 292.703125 0.0507812 207.859375 1.339844 172.851562 C 1.835938 159.359375 32.050781 117.535156 41.785156 102.730469 Z M 41.785156 102.730469 " clip-rule="evenodd"/></clipPath><clipPath id="6bf76cf2b1"><path d="M 171 239 L 361 239 L 361 361.660156 L 171 361.660156 Z M 171 239 " clip-rule="nonzero"/></clipPath><clipPath id="bb16541db3"><path d="M 41.785156 102.730469 C 49.253906 90.550781 58.320312 79.9375 67.738281 69.195312 C 79.523438 55.753906 90.679688 34.378906 104.742188 22.457031 C 120.988281 8.683594 174.699219 49.214844 191.875 51.316406 C 223.429688 55.183594 250.792969 37.390625 276.628906 63.417969 C 301.265625 88.238281 313.949219 121.613281 320.953125 155.328125 C 322.886719 164.625 322.429688 175.855469 325.863281 184.59375 C 329.59375 194.078125 338.753906 199.6875 344.671875 207.640625 C 365.285156 235.339844 364.53125 246.234375 370.878906 283.816406 C 375.015625 308.296875 350.675781 330.402344 332.09375 337.664062 C 259.738281 365.929688 249.441406 366.402344 189.039062 352.679688 C 173.726562 349.203125 155.632812 351.828125 140.179688 352.203125 C 116.871094 352.773438 30.882812 364.699219 24.066406 346.5 C 3.914062 292.703125 0.0507812 207.859375 1.339844 172.851562 C 1.835938 159.359375 32.050781 117.535156 41.785156 102.730469 Z M 41.785156 102.730469 " clip-rule="evenodd"/></clipPath></defs><path fill="#c9c6c9" d="M 41.785156 102.730469 C 49.253906 90.550781 58.320312 79.9375 67.738281 69.195312 C 79.523438 55.753906 90.679688 34.378906 104.742188 22.457031 C 120.988281 8.683594 174.699219 49.214844 191.875 51.316406 C 223.429688 55.183594 250.792969 37.390625 276.628906 63.417969 C 301.265625 88.238281 313.949219 121.613281 320.953125 155.328125 C 322.886719 164.625 322.429688 175.855469 325.863281 184.59375 C 329.59375 194.078125 338.753906 199.6875 344.671875 207.640625 C 365.285156 235.339844 364.53125 246.234375 370.878906 283.816406 C 375.015625 308.296875 350.675781 330.402344 332.09375 337.664062 C 259.738281 365.929688 249.441406 366.402344 189.039062 352.679688 C 173.726562 349.203125 155.632812 351.828125 140.179688 352.203125 C 116.871094 352.773438 30.882812 364.699219 24.066406 346.5 C 3.914062 292.703125 0.0507812 207.859375 1.339844 172.851562 C 1.835938 159.359375 32.050781 117.535156 41.785156 102.730469 Z M 41.785156 102.730469 " fill-opacity="1" fill-rule="evenodd"/><g clip-path="url(#b6964e9a6d)"><g clip-path="url(#36476c54d2)"><path fill="#b5b2b5" d="M 120.183594 148.332031 C 131.921875 131.808594 143.136719 114.820312 155.808594 98.992188 C 162.953125 90.070312 170.398438 81.34375 177.15625 72.117188 C 183.28125 63.75 190.273438 52.621094 198.339844 45.628906 C 200.011719 44.179688 204.316406 46.03125 205.945312 46.753906 C 212.335938 49.582031 236.308594 30.277344 254.671875 31.226562 C 279.070312 32.492188 297.460938 53.980469 289.605469 59.296875 C 283.671875 63.3125 272.148438 56.261719 264.285156 60.871094 C 234.867188 78.101562 201.898438 112.386719 199.84375 153.882812 C 198.878906 173.390625 195.683594 192.910156 190.316406 211.816406 C 185.933594 227.261719 187.972656 241.648438 186.460938 257.800781 C 184.308594 280.816406 221.601562 315.316406 206.074219 354.507812 C 195.355469 381.566406 204.089844 397.691406 203.644531 397.777344 C 192.222656 399.988281 178.265625 367.257812 166.925781 365.429688 C 138.253906 360.800781 120.914062 344.914062 104.285156 321.234375 C 83.210938 291.222656 81.617188 262.707031 89.445312 226.96875 C 97.710938 189.242188 111.460938 169.25 129.914062 136.167969 " fill-opacity="1" fill-rule="evenodd"/></g></g><g clip-path="url(#8e42a01da0)"><g clip-path="url(#b9d8ace031)"><path fill="#9a9599" d="M 232.363281 283.613281 C 263.046875 265.546875 301.453125 272.339844 330.6875 251.472656 C 340.257812 244.640625 357.972656 217.796875 371.207031 222.316406 C 390.671875 228.96875 397.171875 263.695312 395.019531 281.941406 C 392.300781 304.984375 372.558594 334.09375 351.117188 343.378906 C 269.945312 378.519531 225.769531 282.101562 232.363281 283.613281 Z M 232.363281 283.613281 " fill-opacity="1" fill-rule="evenodd"/></g></g><g clip-path="url(#55e6247702)"><g clip-path="url(#326ca8ee4a)"><path fill="#878085" d="M 238.273438 279.730469 C 246.34375 275.828125 262.363281 269.796875 270.992188 267.28125 C 284.449219 263.359375 296.980469 262.65625 309.042969 254.609375 C 318.273438 248.449219 347.933594 222.148438 356.8125 222.007812 C 361.5 221.933594 362.75 211.148438 363.113281 213.925781 C 364.820312 227.117188 368.367188 218.269531 359.265625 225.617188 C 355.851562 228.375 340.535156 246.101562 335.5625 250.671875 C 318.429688 266.40625 297.402344 273.738281 273.632812 271.929688 C 265.140625 271.285156 243 279.804688 234.570312 278.761719 C 229.050781 278.078125 243.976562 280.003906 238.273438 279.730469 Z M 238.273438 279.730469 " fill-opacity="1" fill-rule="evenodd"/></g></g><g clip-path="url(#d791d0a4c7)"><g clip-path="url(#ce5da29729)"><path fill="#b5b2b5" d="M 290.765625 70.507812 C 243.425781 65.976562 233.324219 91.261719 212.003906 127.753906 C 202.371094 144.234375 208.3125 172.5 207.46875 188.730469 C 206.53125 206.796875 228.335938 219.777344 236.515625 233.78125 C 241.820312 242.859375 237.503906 269.503906 244.285156 277.480469 C 245.292969 278.667969 248.730469 274.882812 252.371094 272.753906 C 262.691406 266.722656 279.488281 251.636719 279.488281 251.636719 L 291.109375 211.695312 L 337.097656 202.691406 C 337.097656 202.691406 341.988281 199.175781 344.171875 185.382812 C 345.628906 176.1875 345.867188 159.917969 343.652344 142.460938 C 339.214844 107.4375 324.90625 67.621094 290.765625 70.507812 Z M 290.765625 70.507812 " fill-opacity="1" fill-rule="evenodd"/></g></g><g clip-path="url(#b46278e48b)"><g clip-path="url(#e9bd94ef89)"><path fill="#9a9599" d="M 63.691406 71.890625 C 66.625 90.332031 75.734375 108 87.527344 122.761719 C 111.898438 153.253906 144.589844 163.894531 151.949219 205.613281 C 156.730469 232.699219 151.597656 251.890625 162.941406 277.855469 C 172.046875 298.699219 189.421875 315.886719 197.574219 336.792969 C 201.875 347.8125 202.796875 359.785156 202.980469 371.503906 C 203.523438 405.546875 185.628906 416.8125 152.292969 424.558594 C 141.46875 427.074219 127.039062 431.605469 115.753906 429.617188 C 95.351562 426.019531 87.519531 403.390625 72.355469 391.925781 C 58.417969 381.386719 39.351562 377.691406 27.292969 364.972656 C -16.832031 318.425781 -34.207031 202.675781 -5.140625 147.726562 C 3.40625 131.570312 39.925781 74.859375 63.691406 71.890625 Z M 63.691406 71.890625 " fill-opacity="1" fill-rule="evenodd"/></g></g><g clip-path="url(#fc83a3aeff)"><g clip-path="url(#f2fc276d3a)"><path fill="#878085" d="M 2.726562 172.542969 C 12.953125 191.996094 32.394531 222.019531 54.167969 230.09375 C 66.222656 234.5625 79.214844 235.769531 89.675781 243.730469 C 114.910156 262.929688 108.191406 272.242188 123.789062 293.734375 C 138.363281 313.816406 159.074219 326.378906 166.6875 351.527344 C 185.28125 412.9375 39.789062 411.441406 8.085938 378.90625 C -25.300781 344.640625 -29.007812 270.246094 -26.6875 224.925781 C -25.546875 202.707031 -29.078125 187.75 -10.871094 175.265625 C -8.789062 173.839844 0.292969 173.117188 2.726562 172.542969 Z M 2.726562 172.542969 " fill-opacity="1" fill-rule="evenodd"/></g></g><g clip-path="url(#fa93b5753d)"><g clip-path="url(#620fc100e5)"><path fill="#9a9599" d="M 206.339844 123.199219 C 191.527344 154.617188 189.546875 194.710938 184.28125 240.933594 C 181.226562 267.746094 202.5 291.609375 224.675781 308.941406 C 235.203125 317.171875 248.3125 316.367188 260.242188 321.085938 C 275.472656 327.113281 334.894531 348.996094 310.246094 327.796875 C 306.378906 324.472656 272.496094 304.03125 247.886719 279.34375 C 238.3125 269.738281 237.28125 252.574219 232.046875 240.875 C 228.023438 231.875 218.875 226.960938 213.488281 218.9375 C 197.527344 195.167969 202.457031 149.886719 206.339844 123.199219 Z M 206.339844 123.199219 " fill-opacity="1" fill-rule="evenodd"/></g></g><g clip-path="url(#6bf76cf2b1)"><g clip-path="url(#bb16541db3)"><path fill="#878085" d="M 186.203125 239.113281 C 200.222656 255.890625 209.867188 277.933594 228.289062 290.445312 C 238.191406 297.171875 251.113281 298.925781 260.527344 305.6875 C 272.164062 314.046875 278.746094 323.679688 293.121094 328.492188 C 311.351562 334.59375 355.988281 315.175781 359.070312 321.800781 C 368.539062 342.167969 323.414062 371.910156 304.972656 377.046875 C 271.820312 386.289062 217.476562 391.164062 193.144531 359.550781 C 169.421875 328.726562 172.355469 321.171875 171.789062 283.753906 C 171.742188 280.757812 179.074219 241.414062 186.203125 239.113281 Z M 186.203125 239.113281 " fill-opacity="1" fill-rule="evenodd"/></g></g><g fill="#ffffff" fill-opacity="1"><g transform="translate(348.041202, 33.849995)"><g><path d="M 2.109375 0.078125 C 1.804688 0.078125 1.566406 -0.00390625 1.390625 -0.171875 C 1.222656 -0.335938 1.140625 -0.5625 1.140625 -0.84375 C 1.140625 -1.113281 1.222656 -1.332031 1.390625 -1.5 C 1.566406 -1.675781 1.804688 -1.765625 2.109375 -1.765625 C 2.410156 -1.765625 2.644531 -1.679688 2.8125 -1.515625 C 2.988281 -1.347656 3.078125 -1.128906 3.078125 -0.859375 C 3.078125 -0.578125 2.988281 -0.347656 2.8125 -0.171875 C 2.632812 -0.00390625 2.398438 0.078125 2.109375 0.078125 Z M 2.109375 0.078125 "/></g></g></g></svg>